<svg width="168" height="26" viewBox="0 0 168 26" fill="none" xmlns="http://www.w3.org/2000/svg">
<g clip-path="url(#clip0_608_68892)">
<path d="M118.723 25.3176V14.9003H120.575L124.296 20.4287L124.843 21.3856L124.904 21.3697V14.9003H126.909V25.3176H125.011L121.183 19.5919L120.804 18.8935L120.727 18.9094V25.3176H118.723Z" fill="white"/>
<path d="M111.659 25.4696C111.062 25.4696 110.5 25.3675 109.974 25.1657C109.448 24.9639 108.981 24.6646 108.577 24.27C108.183 23.8641 107.874 23.3629 107.65 22.7666C107.428 22.1702 107.316 21.465 107.316 20.6554V19.5783C107.316 18.7688 107.428 18.0658 107.65 17.4672C107.883 16.8708 108.196 16.3742 108.591 15.9796C108.997 15.5737 109.457 15.2699 109.972 15.068C110.498 14.8662 111.056 14.7642 111.643 14.7642H112.16C112.768 14.7642 113.33 14.8662 113.845 15.068C114.371 15.2699 114.831 15.5737 115.226 15.9796C115.632 16.3742 115.945 16.8708 116.167 17.4672C116.389 18.0636 116.5 18.7688 116.5 19.5783V20.6554C116.5 21.465 116.385 22.1679 116.151 22.7666C115.929 23.3629 115.616 23.8641 115.21 24.27C114.815 24.6646 114.355 24.9639 113.829 25.1657C113.312 25.3675 112.761 25.4696 112.174 25.4696H111.657H111.659ZM111.904 23.7825C112.228 23.7825 112.527 23.7371 112.799 23.6464C113.074 23.5444 113.312 23.3924 113.514 23.1906C113.716 22.9775 113.874 22.7053 113.985 22.3697C114.108 22.0364 114.167 21.626 114.167 21.1407V19.1067C114.167 18.6214 114.106 18.2109 113.985 17.8776C113.874 17.5329 113.718 17.2608 113.514 17.0567C113.312 16.8436 113.074 16.6917 112.799 16.601C112.525 16.4989 112.233 16.449 111.92 16.449C111.607 16.449 111.307 16.4989 111.024 16.601C110.75 16.6917 110.511 16.8436 110.31 17.0567C110.108 17.2586 109.945 17.5284 109.824 17.8617C109.713 18.1951 109.657 18.6055 109.657 19.0908V21.1248C109.657 21.6101 109.713 22.0251 109.824 22.3697C109.947 22.7031 110.108 22.9775 110.31 23.1906C110.511 23.3924 110.75 23.5444 111.024 23.6464C111.298 23.7371 111.591 23.7825 111.904 23.7825Z" fill="white"/>
<path d="M100.815 25.3176V23.6623H102.031V16.5556H100.815V14.9003H105.462V16.5556H104.246V23.6623H105.462V25.3176H100.815Z" fill="white"/>
<path d="M94.1785 25.3176V16.6168H91.1875V14.9003H99.3736V16.6168H96.3826V25.3176H94.1807H94.1785Z" fill="white"/>
<path d="M81.1758 25.3176V14.9003H83.0284L86.7495 20.4287L87.296 21.3856L87.3573 21.3697V14.9003H89.3618V25.3176H87.4638L83.6361 19.5919L83.2574 18.8935L83.1826 18.9094V25.3176H81.178H81.1758Z" fill="white"/>
<path d="M71.8105 25.3176V14.9003H79.0533L78.8106 16.601H74.0124V19.1679H78.4614V20.8391H74.0124V23.6192H78.8719L79.1145 25.3199H71.8105V25.3176Z" fill="white"/>
<path d="M64.2497 25.3176L60.7871 14.9003H63.0797L65.5854 22.4786H65.6466L68.1228 14.9003H70.2498L66.7713 25.3176H64.2497Z" fill="white"/>
<path d="M51.0186 25.3176V14.9003H52.8712L56.5923 20.4287L57.1388 21.3856L57.2 21.3697V14.9003H59.2046V25.3176H57.3066L53.4789 19.5919L53.1002 18.8935L53.0254 18.9094V25.3176H51.0208H51.0186Z" fill="white"/>
<path d="M43.9548 25.4696C43.3584 25.4696 42.796 25.3675 42.2699 25.1657C41.7439 24.9639 41.2767 24.6646 40.8731 24.27C40.4785 23.8641 40.1701 23.3629 39.9456 22.7666C39.7234 22.1702 39.6123 21.465 39.6123 20.6554V19.5783C39.6123 18.7688 39.7234 18.0658 39.9456 17.4672C40.1792 16.8708 40.4921 16.3742 40.8867 15.9796C41.2926 15.5737 41.7529 15.2699 42.2677 15.068C42.7938 14.8662 43.3516 14.7642 43.9389 14.7642H44.4559C45.0636 14.7642 45.626 14.8662 46.1407 15.068C46.6668 15.2699 47.1271 15.5737 47.5217 15.9796C47.9276 16.3742 48.2405 16.8708 48.4628 17.4672C48.685 18.0636 48.7961 18.7688 48.7961 19.5783V20.6554C48.7961 21.465 48.6805 22.1679 48.4469 22.7666C48.2247 23.3629 47.9095 23.8641 47.5058 24.27C47.1113 24.6646 46.6509 24.9639 46.1249 25.1657C45.6078 25.3675 45.0568 25.4696 44.4695 25.4696H43.9525H43.9548ZM44.1974 23.7825C44.5217 23.7825 44.821 23.7371 45.0931 23.6464C45.3675 23.5444 45.6033 23.3924 45.8074 23.1906C46.0092 22.9775 46.1679 22.7053 46.2791 22.3697C46.4015 22.0364 46.4605 21.626 46.4605 21.1407V19.1067C46.4605 18.6214 46.3992 18.2109 46.2791 17.8776C46.1679 17.5329 46.0115 17.2608 45.8074 17.0567C45.6056 16.8436 45.3675 16.6917 45.0931 16.601C44.8187 16.4989 44.5262 16.449 44.2133 16.449C43.9003 16.449 43.601 16.4989 43.3176 16.601C43.0432 16.6917 42.8074 16.8436 42.6033 17.0567C42.4015 17.2586 42.2382 17.5284 42.118 17.8617C42.0069 18.1951 41.9502 18.6055 41.9502 19.0908V21.1248C41.9502 21.6101 42.0069 22.0251 42.118 22.3697C42.2405 22.7031 42.4015 22.9775 42.6033 23.1906C42.8051 23.3924 43.0432 23.5444 43.3176 23.6464C43.5919 23.7371 43.8845 23.7825 44.1974 23.7825Z" fill="white"/>
<path d="M33.4788 25.4696C32.862 25.4696 32.2838 25.3788 31.7486 25.1952C31.2225 25.0138 30.7554 24.7303 30.3518 24.3448C29.9459 23.9593 29.6284 23.465 29.3949 22.8573C29.1726 22.2496 29.0615 21.5149 29.0615 20.6554V19.5466C29.0615 18.7166 29.1772 17.9978 29.4107 17.3901C29.6443 16.7824 29.9618 16.2858 30.3677 15.9025C30.7736 15.508 31.2384 15.22 31.7645 15.0363C32.2906 14.8436 32.853 14.7483 33.4493 14.7483H33.7237C34.2906 14.7483 34.8212 14.83 35.3178 14.991C35.8235 15.1429 36.2634 15.3901 36.6399 15.7347C37.0253 16.0681 37.3224 16.5034 37.5356 17.0409C37.7578 17.5783 37.8689 18.2246 37.8689 18.9842H35.7895C35.7895 18.3153 35.6943 17.8005 35.5015 17.4354C35.3201 17.0613 35.0616 16.8028 34.726 16.6599C34.4017 16.508 34.0162 16.4332 33.5718 16.4332C33.2589 16.4332 32.9641 16.483 32.692 16.5851C32.4289 16.6758 32.1999 16.8277 32.0094 17.0409C31.8167 17.2427 31.6647 17.5171 31.5536 17.8617C31.4516 18.1951 31.4017 18.6055 31.4017 19.0908V21.1248C31.4017 21.7734 31.4924 22.2949 31.6761 22.6895C31.8575 23.075 32.1114 23.3516 32.4357 23.524C32.76 23.6963 33.1387 23.7825 33.5741 23.7825C34.0503 23.7825 34.4607 23.7122 34.8031 23.5693C35.1478 23.4174 35.4108 23.1589 35.5922 22.7938C35.7736 22.4196 35.8666 21.9026 35.8666 21.245H37.8712C37.8712 21.9638 37.7601 22.592 37.5378 23.1271C37.3247 23.6532 37.0322 24.0886 36.658 24.4333C36.2838 24.7779 35.8485 25.0364 35.3519 25.2088C34.8553 25.3811 34.3246 25.4673 33.7577 25.4673H33.4834L33.4788 25.4696Z" fill="white"/>
<path d="M155.633 11.0997V0.682373H157.851V9.36957H162.209L162.467 11.0997H155.633Z" fill="white"/>
<path d="M143.854 11.0997L147.682 0.682373H150.324L154.136 11.0997H151.827L151.022 8.94326H146.8L145.995 11.0997H143.854ZM147.347 7.34913H150.46L148.941 3.02027H148.879L147.347 7.34913Z" fill="white"/>
<path d="M134.16 11.0997V0.682373H136.013L139.734 6.21079L140.28 7.16772L140.342 7.15185V0.682373H142.346V11.0997H140.448L136.621 5.37405L136.242 4.67562L136.165 4.6915V11.0997H134.16Z" fill="white"/>
<path d="M127.097 11.2517C126.501 11.2517 125.939 11.1496 125.413 10.9478C124.886 10.746 124.422 10.4467 124.016 10.0521C123.621 9.64621 123.313 9.14507 123.088 8.54869C122.866 7.95231 122.755 7.24708 122.755 6.43755V5.36043C122.755 4.5509 122.866 3.84794 123.088 3.24929C123.322 2.65292 123.635 2.15631 124.029 1.76175C124.435 1.35585 124.895 1.05199 125.41 0.850169C125.936 0.648353 126.494 0.54631 127.081 0.54631H127.598C128.206 0.54631 128.769 0.648353 129.283 0.850169C129.809 1.05199 130.27 1.35585 130.664 1.76175C131.07 2.15631 131.383 2.65292 131.605 3.24929C131.828 3.84567 131.939 4.5509 131.939 5.36043V6.43755C131.939 7.24708 131.823 7.95004 131.589 8.54869C131.367 9.14507 131.052 9.64621 130.648 10.0521C130.254 10.4467 129.794 10.746 129.267 10.9478C128.75 11.1496 128.199 11.2517 127.612 11.2517H127.095H127.097ZM127.34 9.56684C127.664 9.56684 127.964 9.52149 128.236 9.43079C128.51 9.32874 128.746 9.17681 128.95 8.975C129.152 8.76184 129.311 8.48973 129.422 8.15412C129.544 7.82079 129.603 7.41035 129.603 6.92508V4.89104C129.603 4.40577 129.542 3.99534 129.422 3.662C129.311 3.31732 129.154 3.04521 128.95 2.84113C128.748 2.62797 128.51 2.47604 128.236 2.38534C127.961 2.2833 127.669 2.23341 127.356 2.23341C127.043 2.23341 126.744 2.2833 126.46 2.38534C126.186 2.47604 125.95 2.62797 125.746 2.84113C125.544 3.04294 125.381 3.31279 125.261 3.64613C125.149 3.97946 125.093 4.3899 125.093 4.87517V6.90921C125.093 7.39448 125.149 7.80945 125.261 8.15412C125.383 8.48746 125.544 8.76184 125.746 8.975C125.948 9.17681 126.186 9.32874 126.46 9.43079C126.735 9.52149 127.027 9.56684 127.342 9.56684H127.34Z" fill="white"/>
<path d="M116.253 11.0997V9.4444H117.468V2.33772H116.253V0.682373H120.899V2.33772H119.684V9.4444H120.899V11.0997H116.253Z" fill="white"/>
<path d="M109.616 11.0997V2.39895H106.625V0.682373H114.811V2.39895H111.82V11.0997H109.618H109.616Z" fill="white"/>
<path d="M100.496 11.2517C99.7154 11.2517 99.042 11.1088 98.4751 10.8254C97.9082 10.5328 97.4683 10.1224 97.1531 9.59632C96.8492 9.07024 96.6973 8.45799 96.6973 7.75957V0.682373H98.915V7.72782C98.915 8.27431 99.0828 8.72103 99.4161 9.06344C99.7608 9.39678 100.221 9.56458 100.797 9.56458C101.373 9.56458 101.829 9.39224 102.164 9.04757C102.498 8.70289 102.666 8.26297 102.666 7.72555V0.682373H104.883V7.75957C104.883 8.45799 104.711 9.07024 104.366 9.59632C104.033 10.1224 103.566 10.5328 102.969 10.8254C102.382 11.1088 101.7 11.2517 100.92 11.2517H100.496Z" fill="white"/>
<path d="M89.7742 11.0997V2.39895H86.7832V0.682373H94.9693V2.39895H91.9783V11.0997H89.7764H89.7742Z" fill="white"/>
<path d="M80.6904 11.0997V9.4444H81.9059V2.33772H80.6904V0.682373H85.3367V2.33772H84.1213V9.4444H85.3367V11.0997H80.6904Z" fill="white"/>
<path d="M74.0535 11.0997V2.39895H71.0625V0.682373H79.2486V2.39895H76.2576V11.0997H74.0557H74.0535Z" fill="white"/>
<path d="M65.3885 11.2517C64.6492 11.2517 63.9712 11.1451 63.3544 10.9319C62.7467 10.7097 62.2569 10.365 61.8805 9.90018C61.5154 9.43532 61.334 8.82307 61.334 8.06342V7.89562C61.334 7.8344 61.3385 7.77997 61.3499 7.72782H63.3998C63.3907 7.77771 63.3839 7.82306 63.3839 7.86387V7.99993C63.3839 8.3242 63.4587 8.60311 63.6107 8.83441C63.7717 9.06797 64.0052 9.24485 64.3091 9.36503C64.622 9.48748 64.9916 9.54644 65.4179 9.54644C65.8941 9.54644 66.2842 9.50108 66.588 9.41038C66.8919 9.30834 67.1209 9.15641 67.2706 8.95459C67.4225 8.75278 67.4973 8.50334 67.4973 8.21082C67.4973 7.89789 67.3862 7.64845 67.164 7.46704C66.9508 7.2743 66.6674 7.12237 66.3136 7.01125C65.969 6.90014 65.5857 6.7981 65.1594 6.7074C64.7445 6.60535 64.325 6.48971 63.8986 6.35818C63.4837 6.22666 63.0982 6.04979 62.7444 5.82757C62.3907 5.60534 62.1072 5.31055 61.8941 4.94773C61.6809 4.58265 61.5743 4.11779 61.5743 3.55089C61.5743 2.87288 61.7558 2.31051 62.1208 1.86606C62.495 1.42161 62.9871 1.086 63.5948 0.863779C64.2116 0.641554 64.8805 0.530441 65.5993 0.530441C66.3182 0.530441 66.9712 0.637019 67.5586 0.850174C68.1459 1.05199 68.6175 1.37626 68.9713 1.82298C69.325 2.25836 69.5019 2.82526 69.5019 3.52368V3.72096H67.4815V3.53955C67.4815 3.26517 67.4066 3.02934 67.2547 2.82526C67.1118 2.62344 66.9055 2.47151 66.6311 2.36947C66.3567 2.25836 66.0234 2.20167 65.6288 2.20167C65.2637 2.20167 64.9395 2.24248 64.656 2.32412C64.3816 2.39441 64.1708 2.51686 64.0188 2.6892C63.8669 2.8502 63.7898 3.06336 63.7898 3.3264C63.7898 3.63026 63.8964 3.87289 64.1095 4.0543C64.3227 4.23571 64.6061 4.3831 64.9599 4.49421C65.3136 4.59626 65.7037 4.69603 66.13 4.79807C66.5653 4.88878 66.9894 4.99989 67.4044 5.13141C67.8284 5.25386 68.2184 5.42393 68.5744 5.64842C68.9282 5.86158 69.2116 6.14957 69.4248 6.51465C69.6379 6.8684 69.7445 7.32418 69.7445 7.88201C69.7445 8.69155 69.5518 9.34462 69.1686 9.84123C68.7831 10.3265 68.2615 10.687 67.6039 10.9183C66.9554 11.1406 66.2161 11.2517 65.3862 11.2517H65.3885Z" fill="white"/>
<path d="M51.0186 11.0997V0.682373H52.8712L56.5923 6.21079L57.1388 7.16772L57.2 7.15185V0.682373H59.2046V11.0997H57.3066L53.4789 5.37405L53.1002 4.67562L53.0254 4.6915V11.0997H51.0208H51.0186Z" fill="white"/>
<path d="M43.9548 11.2517C43.3584 11.2517 42.796 11.1496 42.2699 10.9478C41.7439 10.746 41.2767 10.4467 40.8731 10.0521C40.4785 9.64621 40.1701 9.14507 39.9456 8.54869C39.7234 7.95231 39.6123 7.24708 39.6123 6.43755V5.36043C39.6123 4.5509 39.7234 3.84794 39.9456 3.24929C40.1792 2.65292 40.4921 2.15631 40.8867 1.76175C41.2926 1.35585 41.7529 1.05199 42.2677 0.850169C42.7938 0.648353 43.3516 0.54631 43.9389 0.54631H44.4559C45.0636 0.54631 45.626 0.648353 46.1407 0.850169C46.6668 1.05199 47.1271 1.35585 47.5217 1.76175C47.9276 2.15631 48.2405 2.65292 48.4628 3.24929C48.685 3.84567 48.7961 4.5509 48.7961 5.36043V6.43755C48.7961 7.24708 48.6805 7.95004 48.4469 8.54869C48.2247 9.14507 47.9095 9.64621 47.5058 10.0521C47.1113 10.4467 46.6509 10.746 46.1249 10.9478C45.6078 11.1496 45.0568 11.2517 44.4695 11.2517H43.9525H43.9548ZM44.1974 9.56684C44.5217 9.56684 44.821 9.52149 45.0931 9.43079C45.3675 9.32874 45.6033 9.17681 45.8074 8.975C46.0092 8.76184 46.1679 8.48973 46.2791 8.15412C46.4015 7.82079 46.4605 7.41035 46.4605 6.92508V4.89104C46.4605 4.40577 46.3992 3.99534 46.2791 3.662C46.1679 3.31732 46.0115 3.04521 45.8074 2.84113C45.6056 2.62797 45.3675 2.47604 45.0931 2.38534C44.8187 2.2833 44.5262 2.23341 44.2133 2.23341C43.9003 2.23341 43.601 2.2833 43.3176 2.38534C43.0432 2.47604 42.8074 2.62797 42.6033 2.84113C42.4015 3.04294 42.2382 3.31279 42.118 3.64613C42.0069 3.97946 41.9502 4.3899 41.9502 4.87517V6.90921C41.9502 7.39448 42.0069 7.80945 42.118 8.15412C42.2405 8.48746 42.4015 8.76184 42.6033 8.975C42.8051 9.17681 43.0432 9.32874 43.3176 9.43079C43.5919 9.52149 43.8845 9.56684 44.1974 9.56684Z" fill="white"/>
<path d="M33.4788 11.2517C32.862 11.2517 32.2838 11.161 31.7486 10.9773C31.2225 10.7959 30.7554 10.5124 30.3518 10.1269C29.9459 9.74145 29.6284 9.24711 29.3949 8.63939C29.1726 8.03168 29.0615 7.29697 29.0615 6.43755V5.32869C29.0615 4.49875 29.1772 3.77992 29.4107 3.1722C29.6443 2.56448 29.9618 2.06788 30.3677 1.68465C30.7736 1.29009 31.2384 1.0021 31.7645 0.818427C32.2906 0.625681 32.853 0.530441 33.4493 0.530441H33.7237C34.2906 0.530441 34.8212 0.612075 35.3178 0.773075C35.8235 0.925004 36.2634 1.17217 36.6399 1.51685C37.0253 1.85019 37.3224 2.28557 37.5356 2.82299C37.7578 3.36041 37.8689 4.00668 37.8689 4.76633H35.7895C35.7895 4.09738 35.6943 3.58264 35.5015 3.21755C35.3201 2.8434 35.0616 2.58489 34.726 2.44203C34.4017 2.2901 34.0162 2.21527 33.5718 2.21527C33.2589 2.21527 32.9641 2.26516 32.692 2.3672C32.4289 2.45791 32.1999 2.60983 32.0094 2.82299C31.8167 3.02481 31.6647 3.29919 31.5536 3.64386C31.4516 3.9772 31.4017 4.38764 31.4017 4.8729V6.90695C31.4017 7.55548 31.4924 8.07703 31.6761 8.47159C31.8575 8.85709 32.1114 9.13373 32.4357 9.30607C32.76 9.47841 33.1387 9.56458 33.5741 9.56458C34.0503 9.56458 34.4607 9.49428 34.8031 9.35142C35.1478 9.19949 35.4108 8.94099 35.5922 8.5759C35.7736 8.20175 35.8666 7.68473 35.8666 7.02713H37.8712C37.8712 7.74596 37.7601 8.37409 37.5378 8.90924C37.3247 9.43532 37.0322 9.8707 36.658 10.2154C36.2838 10.5601 35.8485 10.8186 35.3519 10.9909C34.8553 11.1632 34.3246 11.2494 33.7577 11.2494H33.4834L33.4788 11.2517Z" fill="white"/>
<path d="M7.31743 12.907C7.26074 13.8957 8.02039 14.7461 9.01133 14.8027C9.04535 14.8027 9.07936 14.805 9.11564 14.805C10.068 14.805 10.8549 14.0612 10.9093 13.1111C10.966 12.1224 10.2064 11.2721 9.21542 11.2177C8.21994 11.1587 7.37412 11.9252 7.31743 12.9093V12.907Z" fill="white"/>
<path d="M0.614176 12.4467C0.294444 12.4286 0.017796 12.6735 0.00192274 12.9932C-0.0162181 13.3129 0.228683 13.5873 0.548415 13.6054C0.868148 13.6236 1.1448 13.3787 1.16294 13.059C1.18108 12.7392 0.936176 12.4648 0.616444 12.4467H0.614176Z" fill="white"/>
<path d="M7.2018 2.48738C7.48752 2.34225 7.60317 1.99304 7.46031 1.70732C7.31518 1.4216 6.96597 1.30596 6.68025 1.45108C6.39454 1.59621 6.27889 1.94542 6.42401 2.23114C6.56914 2.51686 6.91835 2.63251 7.20407 2.48965L7.2018 2.48738Z" fill="white"/>
<path d="M9.0274 5.6643C9.46958 5.44207 9.64872 4.90238 9.4265 4.4602C9.202 4.01802 8.66231 3.84114 8.22013 4.06337C7.77795 4.28559 7.59881 4.82528 7.82103 5.26747C8.04553 5.70965 8.58522 5.88879 9.0274 5.6643Z" fill="white"/>
<path d="M2.88843 7.84801C3.23083 8.0725 3.68889 7.97726 3.91338 7.63485C4.13788 7.29471 4.04264 6.83665 3.70023 6.61216C3.35782 6.38767 2.89976 6.48291 2.67527 6.82532C2.45078 7.16772 2.54602 7.62351 2.88843 7.84801Z" fill="white"/>
<path d="M3.9817 12.1224C3.48736 12.093 3.06332 12.4716 3.03384 12.9682C3.00436 13.4626 3.38305 13.8866 3.87965 13.9161C4.37626 13.9456 4.8003 13.5669 4.82751 13.0703C4.85472 12.576 4.4783 12.1519 3.9817 12.1247V12.1224Z" fill="white"/>
<path d="M2.98807 18.152C2.62299 18.3357 2.47786 18.7801 2.66154 19.1429C2.84521 19.508 3.28967 19.6531 3.65475 19.4695C4.01983 19.2858 4.16723 18.8413 3.98128 18.4763C3.79761 18.1112 3.35316 17.9661 2.98807 18.1497V18.152Z" fill="white"/>
<path d="M6.4759 10.2698C6.96343 10.5895 7.61877 10.4535 7.9385 9.96595C8.25823 9.47841 8.12218 8.82534 7.63464 8.50561C7.14711 8.18588 6.49177 8.32193 6.17204 8.80947C5.8523 9.297 5.98836 9.95234 6.4759 10.2698Z" fill="white"/>
<path d="M17.5484 5.59174C17.9633 5.86385 18.5212 5.7482 18.7933 5.33323C19.0654 4.91826 18.9498 4.3627 18.5348 4.09059C18.1198 3.81847 17.562 3.93412 17.2899 4.34909C17.0178 4.76406 17.1334 5.31963 17.5484 5.59174Z" fill="white"/>
<path d="M19.3925 2.42616C19.6601 2.60076 20.0207 2.5282 20.1975 2.25835C20.3744 1.99078 20.2996 1.63023 20.0297 1.45562C19.7622 1.27875 19.4016 1.35358 19.2247 1.62342C19.0479 1.891 19.1227 2.25155 19.3925 2.42842V2.42616Z" fill="white"/>
<path d="M17.689 11.1973C16.6936 11.1406 15.8478 11.9047 15.7911 12.8866C15.7344 13.8753 16.494 14.7256 17.485 14.7823C17.519 14.7823 17.553 14.7846 17.5893 14.7846C18.5417 14.7846 19.3285 14.0408 19.3829 13.0907C19.4102 12.6122 19.2492 12.1496 18.9294 11.7936C18.6097 11.4353 18.1698 11.2222 17.6913 11.1973H17.689Z" fill="white"/>
<path d="M9.61619 10.1451C9.92458 10.7551 10.5391 11.1338 11.2239 11.1338C11.5028 11.1338 11.7817 11.068 12.0312 10.941C12.9155 10.4943 13.2738 9.41265 12.8271 8.52829C12.5187 7.9183 11.9042 7.53961 11.2194 7.53961C10.9405 7.53961 10.6616 7.60537 10.4121 7.73236C9.52775 8.17908 9.16947 9.26072 9.61619 10.1451Z" fill="white"/>
<path d="M23.7124 7.84574C24.0775 7.66206 24.2249 7.21761 24.0389 6.85253C23.8552 6.48745 23.4108 6.34232 23.0457 6.52599C22.6806 6.70967 22.5332 7.15412 22.7192 7.51694C22.9029 7.88202 23.3473 8.02715 23.7124 7.84574Z" fill="white"/>
<path d="M19.152 8.41717C18.6304 8.68021 18.4218 9.31287 18.6826 9.83442C18.9456 10.356 19.5806 10.5646 20.1021 10.3015C20.6236 10.0385 20.8323 9.40358 20.5715 8.88429C20.3085 8.36275 19.6735 8.15413 19.152 8.41717Z" fill="white"/>
<path d="M13.2833 2.15404C13.6914 2.17672 14.0406 1.86606 14.0633 1.45789C14.086 1.04972 13.7753 0.700509 13.3672 0.677833C12.959 0.655157 12.6098 0.965818 12.5871 1.37399C12.5644 1.78216 12.8751 2.13137 13.2833 2.15404Z" fill="white"/>
<path d="M13.2746 6.80263C13.8574 6.83438 14.3563 6.38993 14.3903 5.80942C14.422 5.22665 13.9776 4.72777 13.3948 4.69603C12.8121 4.66428 12.3132 5.10873 12.2792 5.68924C12.2452 6.27201 12.6919 6.77089 13.2746 6.80263Z" fill="white"/>
<path d="M7.54643 17.5806C8.06798 17.3175 8.2766 16.6826 8.01583 16.1633C7.75279 15.6418 7.11786 15.4331 6.59631 15.6962C6.07476 15.9592 5.86614 16.5919 6.12692 17.1134C6.38996 17.635 7.02489 17.8436 7.54643 17.5806Z" fill="white"/>
<path d="M13.9567 8.34234C13.4125 9.17001 13.6438 10.2857 14.4737 10.8299C14.7685 11.0226 15.1086 11.1247 15.4578 11.1247C16.0678 11.1247 16.6302 10.8208 16.9635 10.3129C17.5078 9.48521 17.2742 8.36955 16.4465 7.82532C16.1517 7.63257 15.8116 7.53053 15.4624 7.53053C14.8547 7.53053 14.29 7.83439 13.9567 8.34234Z" fill="white"/>
<path d="M17.0812 15.8504C16.7728 15.2404 16.1583 14.8617 15.4735 14.8617C15.1945 14.8617 14.9156 14.9275 14.6662 15.0544C14.2376 15.2699 13.9179 15.6395 13.7682 16.0953C13.6163 16.5511 13.6526 17.0363 13.8703 17.4649C14.1787 18.0749 14.7932 18.4536 15.4757 18.4536C15.7546 18.4536 16.0336 18.3878 16.283 18.2608C17.1674 17.8164 17.5256 16.7325 17.0789 15.8504H17.0812Z" fill="white"/>
<path d="M20.2245 15.7279C19.737 15.4082 19.0816 15.5443 18.7619 16.0318C18.4421 16.5193 18.5782 17.1747 19.0657 17.4921C19.5533 17.8119 20.2086 17.6758 20.5283 17.1883C20.8481 16.7007 20.712 16.0454 20.2245 15.7279Z" fill="white"/>
<path d="M23.6644 13.0295C23.6939 12.5351 23.3152 12.1111 22.8186 12.0816C22.3243 12.0521 21.9002 12.4308 21.8708 12.9274C21.8413 13.4218 22.22 13.8458 22.7166 13.873C23.2109 13.9025 23.6372 13.5215 23.6644 13.0272V13.0295Z" fill="white"/>
<path d="M26.1516 12.39C25.8296 12.3719 25.5552 12.6168 25.5371 12.9365C25.5189 13.2562 25.7638 13.5306 26.0836 13.5488C26.4033 13.5669 26.68 13.322 26.6958 13.0023C26.714 12.6825 26.4691 12.4082 26.1493 12.39H26.1516Z" fill="white"/>
<path d="M23.8116 18.1497C23.4691 17.9252 23.0111 18.0205 22.7866 18.3629C22.5621 18.7053 22.6573 19.1611 22.9998 19.3856C23.3422 19.6101 23.8002 19.5148 24.0247 19.1724C24.2492 18.83 24.154 18.3742 23.8116 18.1497Z" fill="white"/>
<path d="M7.30806 23.5716C7.04048 23.397 6.67993 23.4695 6.50306 23.7394C6.32619 24.0069 6.40102 24.3675 6.67086 24.5421C6.93844 24.7167 7.29899 24.6441 7.47586 24.3743C7.65274 24.1067 7.57791 23.7462 7.30806 23.5716Z" fill="white"/>
<path d="M19.4967 23.5103C19.2109 23.6532 19.0953 24.0024 19.2404 24.2904C19.3855 24.5761 19.7348 24.6918 20.0205 24.5466C20.3062 24.4015 20.4218 24.0546 20.2767 23.7666C20.1316 23.4809 19.7824 23.3652 19.4967 23.5103Z" fill="white"/>
<path d="M12.7439 17.6531C13.007 17.2518 13.0977 16.7733 13.0002 16.3039C12.9027 15.8345 12.626 15.4309 12.2247 15.1678C11.9299 14.9751 11.5897 14.873 11.2405 14.873C10.6328 14.873 10.0682 15.1769 9.73484 15.6848C9.47179 16.0862 9.38109 16.5669 9.4786 17.0363C9.5761 17.5057 9.85048 17.9094 10.2541 18.1724C10.5489 18.3652 10.889 18.4672 11.2383 18.4672C11.846 18.4672 12.4106 18.1633 12.7439 17.6554V17.6531Z" fill="white"/>
<path d="M9.15197 20.406C8.737 20.1339 8.18143 20.2495 7.90705 20.6645C7.63494 21.0795 7.75059 21.635 8.16556 21.9072C8.58053 22.1793 9.13836 22.0636 9.41047 21.6486C9.68259 21.2337 9.56694 20.6781 9.15197 20.406Z" fill="white"/>
<path d="M13.3418 23.8414C12.9336 23.8187 12.5844 24.1294 12.5617 24.5376C12.539 24.9457 12.8497 25.2949 13.2579 25.3176C13.666 25.3403 14.0152 25.0296 14.0379 24.6215C14.0606 24.2133 13.7499 23.8641 13.3418 23.8414Z" fill="white"/>
<path d="M13.3487 19.1928C12.7659 19.1611 12.2671 19.6055 12.233 20.186C12.2013 20.7688 12.6457 21.2677 13.2285 21.2994C13.8113 21.3334 14.3102 20.8867 14.3442 20.3062C14.3782 19.7234 13.9315 19.2246 13.3487 19.1928Z" fill="white"/>
<path d="M17.6734 20.3334C17.2312 20.5557 17.0521 21.0953 17.2766 21.5398C17.4988 21.982 18.0408 22.1588 18.483 21.9366C18.9251 21.7144 19.1043 21.1747 18.8821 20.7325C18.6576 20.2903 18.1179 20.1135 17.6757 20.3357L17.6734 20.3334Z" fill="white"/>
<path d="M134.013 25.2904V24.8119C134.013 24.1861 134.144 23.6577 134.407 23.2292C134.67 22.8006 135.056 22.4174 135.564 22.0795L138.475 20.1089C138.804 19.8799 139.092 19.5942 139.342 19.2495C139.591 18.9071 139.716 18.4853 139.716 17.9887C139.716 17.3606 139.53 16.8685 139.156 16.5102C138.781 16.152 138.253 15.9728 137.566 15.9728C137.128 15.9728 136.743 16.0703 136.41 16.2631C136.076 16.4581 135.813 16.7211 135.618 17.0545C135.423 17.3878 135.328 17.7642 135.328 18.1815V18.3674C135.328 18.4218 135.332 18.4785 135.344 18.5398H134.135C134.126 18.4695 134.119 18.4173 134.119 18.3833V18.2722C134.119 17.6055 134.271 17.0182 134.575 16.5102C134.879 16.0023 135.294 15.6077 135.822 15.3243C136.351 15.0408 136.947 14.898 137.614 14.898H137.734C138.421 14.898 139.008 15.025 139.496 15.2789C139.983 15.5329 140.36 15.8889 140.623 16.347C140.886 16.805 141.017 17.3379 141.017 17.9434C141.017 18.4604 140.929 18.9116 140.757 19.2949C140.582 19.6781 140.351 20.0114 140.063 20.2949C139.775 20.5783 139.459 20.8391 139.122 21.0795L136.285 22.9752C136.085 23.1158 135.929 23.2609 135.815 23.4151C135.702 23.5693 135.62 23.7144 135.577 23.8482C135.532 23.982 135.505 24.0886 135.496 24.1679H141.063V25.2881H134.017L134.013 25.2904Z" fill="white"/>
<path d="M146.355 25.4401C145.73 25.4401 145.158 25.295 144.646 25.007C144.133 24.719 143.73 24.3176 143.437 23.8051C143.144 23.2927 142.997 22.7031 142.997 22.0364V18.2903C142.997 17.6236 143.144 17.0341 143.437 16.5216C143.73 16.0091 144.133 15.6123 144.646 15.3266C145.158 15.0431 145.727 14.9003 146.355 14.9003H146.58C147.217 14.9003 147.789 15.0431 148.296 15.3266C148.804 15.61 149.204 16.0091 149.498 16.5216C149.791 17.0341 149.938 17.6236 149.938 18.2903V22.0364C149.938 22.7031 149.791 23.2927 149.498 23.8051C149.206 24.3176 148.804 24.719 148.296 25.007C147.789 25.295 147.217 25.4401 146.58 25.4401H146.355ZM146.46 24.3947C146.877 24.3947 147.253 24.2995 147.587 24.1113C147.92 23.9231 148.181 23.66 148.371 23.3267C148.56 22.9933 148.655 22.6169 148.655 22.1997V18.1407C148.655 17.7121 148.56 17.3334 148.371 17.0069C148.183 16.6781 147.92 16.4173 147.587 16.2223C147.253 16.0273 146.877 15.932 146.46 15.932C146.042 15.932 145.668 16.0295 145.34 16.2223C145.011 16.415 144.752 16.6781 144.564 17.0069C144.376 17.3357 144.281 17.7144 144.281 18.1407V22.1997C144.281 22.6169 144.376 22.9933 144.564 23.3267C144.752 23.66 145.011 23.9208 145.34 24.1113C145.668 24.2995 146.04 24.3947 146.46 24.3947Z" fill="white"/>
<path d="M151.834 25.2904V24.8119C151.834 24.1861 151.966 23.6577 152.229 23.2292C152.492 22.8006 152.877 22.4174 153.385 22.0795L156.297 20.1089C156.625 19.8799 156.913 19.5942 157.163 19.2495C157.412 18.9071 157.537 18.4853 157.537 17.9887C157.537 17.3606 157.351 16.8685 156.977 16.5102C156.603 16.152 156.074 15.9728 155.387 15.9728C154.95 15.9728 154.564 16.0703 154.231 16.2631C153.898 16.4581 153.634 16.7211 153.439 17.0545C153.244 17.3878 153.149 17.7642 153.149 18.1815V18.3674C153.149 18.4218 153.154 18.4785 153.165 18.5398H151.956C151.947 18.4695 151.941 18.4173 151.941 18.3833V18.2722C151.941 17.6055 152.092 17.0182 152.396 16.5102C152.7 16.0023 153.115 15.6077 153.644 15.3243C154.172 15.0408 154.768 14.898 155.435 14.898H155.555C156.242 14.898 156.83 15.025 157.317 15.2789C157.805 15.5329 158.181 15.8889 158.444 16.347C158.707 16.805 158.839 17.3379 158.839 17.9434C158.839 18.4604 158.75 18.9116 158.578 19.2949C158.403 19.6781 158.172 20.0114 157.884 20.2949C157.596 20.5783 157.281 20.8391 156.943 21.0795L154.106 22.9752C153.907 23.1158 153.75 23.2609 153.637 23.4151C153.523 23.5693 153.442 23.7144 153.399 23.8482C153.353 23.982 153.326 24.0886 153.317 24.1679H158.884V25.2881H151.839L151.834 25.2904Z" fill="white"/>
<path d="M165.446 25.2904V22.6192H160.491V21.5602C160.62 21.3811 160.793 21.109 161.006 20.7461C161.219 20.3833 161.45 19.9593 161.7 19.4763C161.949 18.9933 162.201 18.4831 162.462 17.9456C162.72 17.4082 162.963 16.8753 163.185 16.3493C163.407 15.8232 163.6 15.3402 163.759 14.9003H164.983C164.843 15.3674 164.668 15.8663 164.453 16.3923C164.24 16.9207 164.008 17.4445 163.759 17.9661C163.509 18.4876 163.253 18.9842 162.99 19.4513C162.727 19.9185 162.475 20.338 162.237 20.7053C161.999 21.0727 161.784 21.3629 161.596 21.5715H165.446V18.2427C165.505 18.1429 165.571 18.0205 165.641 17.8776C165.711 17.7348 165.784 17.5783 165.856 17.415C165.929 17.2518 166.001 17.093 166.065 16.9456C166.128 16.796 166.181 16.6622 166.221 16.542H166.714V21.5715H167.997V22.6169H166.714V25.2882H165.444L165.446 25.2904Z" fill="white"/>
</g>
<defs>
<clipPath id="clip0_608_68892">
<rect width="168" height="24.9391" fill="white" transform="translate(0 0.530441)"/>
</clipPath>
</defs>
</svg>
